<svg xmlns="http://www.w3.org/2000/svg" width="58" height="58"><g fill="none" fill-rule="nonzero"><path fill="#24A95A" stroke="#138D3E" stroke-width=".039" d="M51.466 36.118c0 4.001-2.44 6.816-6.403 8.631-3.963 1.816-9.446 2.631-15.522 2.631-6.077 0-11.595-.815-15.594-2.63-3.999-1.816-6.474-4.631-6.474-8.632 0-4.002 2.46-7.625 6.44-10.248 3.982-2.623 9.482-4.245 15.556-4.245 6.075 0 11.575 1.626 15.556 4.25 3.981 2.625 6.441 6.248 6.441 10.243Z"/><path fill="#32DA6D" stroke="#138D3E" stroke-width=".039" d="m35.608 13.791.012.003.007-.009A7.686 7.686 0 0 1 41.555 11c4.236 0 7.675 3.421 7.675 7.634 0 1.385-.37 2.671-1.009 3.788l-.005.009.004.01a9.644 9.644 0 0 1 .94 4.13c0 3.711-2.198 7.072-5.753 9.505-3.555 2.434-8.468 3.939-13.893 3.939-5.426 0-10.339-1.505-13.894-3.939-3.555-2.433-5.752-5.794-5.752-9.506 0-1.442.327-2.829.939-4.13l.004-.009-.005-.009a7.583 7.583 0 0 1-1.01-3.788c0-4.213 3.44-7.634 7.676-7.634a7.73 7.73 0 0 1 5.928 2.785l.007.01.012-.004a27.43 27.43 0 0 1 6.095-.665c2.121 0 4.172.24 6.094.665Z"/><path fill="#FFF" d="M16.845 22.88c2.597 0 4.703-2.094 4.703-4.677 0-2.583-2.106-4.677-4.703-4.677-2.597 0-4.702 2.094-4.702 4.677 0 2.583 2.105 4.677 4.702 4.677ZM41.932 22.88c2.597 0 4.702-2.094 4.702-4.677 0-2.583-2.105-4.677-4.702-4.677-2.598 0-4.703 2.094-4.703 4.677 0 2.583 2.105 4.677 4.703 4.677Z"/><path fill="#32DA6D" stroke="#138D3E" stroke-width=".039" d="M4.032 44.13a.163.163 0 0 0 .018-.008l-.002-.004-.004-.01-.017-.046-.066-.174a70.962 70.962 0 0 1-1.02-2.947c-.6-1.87-1.295-4.301-1.669-6.54-.187-1.12-.293-2.192-.268-3.122.025-.93.181-1.716.52-2.266.337-.55.855-.865 1.608-.856.754.01 1.746.347 3.027 1.108 7.702 4.573 9.453 12.176 9.866 15.688.113.98-.676 1.85-1.676 1.85H2.308c-.794 0-1.084-1.037-.39-1.438l2.123-1.219.015-.008-.006-.016-.018.007ZM54.276 44.123l.018.006a.481.481 0 0 1-.018-.006v-.001l.002-.003.003-.011.016-.045a44.607 44.607 0 0 0 .276-.83c.183-.56.433-1.356.705-2.291.543-1.871 1.17-4.302 1.507-6.541.169-1.12.265-2.192.242-3.122-.023-.93-.165-1.716-.47-2.267a1.677 1.677 0 0 0-.587-.637 1.587 1.587 0 0 0-.867-.218c-.681.01-1.577.346-2.736 1.107-6.946 4.573-8.541 12.19-8.897 15.69-.1.982.606 1.849 1.505 1.849h10.887c.352 0 .596-.258.672-.569.077-.31-.014-.67-.326-.87l-1.932-1.241Zm0 0-.005.014.013.009 1.924 1.218-1.932-1.241Z"/><path fill="#092511" d="M16.893 21.02a2.805 2.805 0 1 0 0-5.61 2.805 2.805 0 0 0 0 5.61ZM41.98 21.02a2.805 2.805 0 1 0 0-5.61 2.805 2.805 0 0 0 0 5.61ZM36.998 29.488a7.536 7.536 0 0 1-10.976 6.042 7.534 7.534 0 0 1-4.037-7.334l7.507.646 7.506.646Z"/></g></svg>