<svg xmlns="http://www.w3.org/2000/svg" width="59" height="59"><defs><linearGradient id="a" x1="91.9%" x2="5.127%" y1="28.561%" y2="67.452%"><stop offset="0%" stop-color="#070100"/><stop offset="36%" stop-color="#77390D"/><stop offset="67%" stop-color="#EA8101"/><stop offset="100%" stop-color="#F4B852"/></linearGradient><linearGradient id="b" x1="10.514%" x2="111.046%" y1="63.228%" y2="37.55%"><stop offset="0%" stop-color="#070100"/><stop offset="37%" stop-color="#77390D"/><stop offset="67%" stop-color="#EA8101"/><stop offset="100%" stop-color="#F4FB52"/></linearGradient><radialGradient id="c" cx="49.933%" cy="50.067%" r="50%" fx="49.933%" fy="50.067%"><stop offset="0%" stop-color="#F4B852"/><stop offset="33%" stop-color="#EA8101"/><stop offset="64%" stop-color="#77390D"/><stop offset="100%" stop-color="#070100"/></radialGradient></defs><g fill="none" fill-rule="nonzero" transform="translate(7 1)"><path fill="url(#a)" d="m31.764 5.2 11.761 11.745c1 .997 1.492 2.006 1.475 3.027-.018 1.014-.446 1.947-1.29 2.787-.879.88-1.827 1.33-2.845 1.347-1.017.018-2.023-.478-3.03-1.475L25.81 10.617c-1.365-1.364-2.683-2.332-3.955-2.898-1.267-.566-2.602-.653-4.002-.268-1.399.385-2.902 1.382-4.51 2.991-2.22 2.217-3.278 4.298-3.168 6.246.11 1.948 1.208 3.96 3.301 6.054L25.6 34.854c1.012 1.01 1.51 2.018 1.492 3.021-.017 1.003-.45 1.936-1.307 2.788-.855.851-1.792 1.3-2.821 1.335-1.024.035-2.041-.455-3.053-1.464L8.16 28.79c-1.913-1.913-3.295-3.72-4.145-5.423-.85-1.703-1.168-3.633-.949-5.785.197-1.843.787-3.628 1.758-5.36.977-1.732 2.37-3.499 4.18-5.313 2.157-2.157 4.216-3.808 6.182-4.957C17.153.803 19.049.161 20.882.027c1.833-.134 3.643.233 5.435 1.102 1.787.869 3.603 2.222 5.453 4.07h-.006Z"/><path fill="url(#b)" d="M13.234 51.841 1.474 40.188c-1-.99-1.49-1.99-1.474-3.003.018-1.012.446-1.932 1.29-2.766.878-.873 1.827-1.319 2.844-1.336 1.018-.017 2.024.469 3.03 1.464l12.025 11.919c1.37 1.354 2.682 2.314 3.954 2.876 1.272.56 2.602.648 4 .266 1.4-.382 2.903-1.372 4.51-2.968 2.22-2.2 3.278-4.265 3.169-6.197-.11-1.933-1.209-3.935-3.302-6.006l-6.457-6.347c-1.012-1.001-1.51-2.002-1.492-2.998.017-.995.451-1.92 1.307-2.765.855-.845 1.792-1.29 2.82-1.325 1.024-.035 2.042.451 3.053 1.452l6.088 5.983c1.914 1.898 3.296 3.691 4.145 5.38.85 1.69 1.168 3.605.949 5.74-.197 1.829-.787 3.6-1.758 5.318-.977 1.718-2.37 3.471-4.18 5.27-2.156 2.142-4.214 3.78-6.18 4.919-1.966 1.14-3.862 1.776-5.695 1.91-1.832.132-3.642-.232-5.434-1.094-1.787-.862-3.608-2.205-5.452-4.039Z"/><circle cx="20" cy="18" r="4" fill="url(#c)"/></g></svg>